<svg xmlns="http://www.w3.org/2000/svg" width="18" height="18" viewBox="0 0 18 18" fill="none">
  <path fill-rule="evenodd" clip-rule="evenodd"
    d="M15.75 4.49908H12V3.24658C11.9824 2.76645 11.7752 2.31287 11.4237 1.9853C11.0722 1.65773 10.6052 1.48288 10.125 1.49908H7.875C7.39482 1.48288 6.9278 1.65773 6.57632 1.9853C6.22485 2.31287 6.01759 2.76645 6 3.24658V4.49908H2.25C2.05109 4.49908 1.86032 4.5781 1.71967 4.71875C1.57902 4.8594 1.5 5.05017 1.5 5.24908C1.5 5.44799 1.57902 5.63876 1.71967 5.77941C1.86032 5.92006 2.05109 5.99908 2.25 5.99908H3V14.2491C3 14.8458 3.23705 15.4181 3.65901 15.8401C4.08097 16.262 4.65326 16.4991 5.25 16.4991H12.75C13.3467 16.4991 13.919 16.262 14.341 15.8401C14.7629 15.4181 15 14.8458 15 14.2491V5.99908H15.75C15.9489 5.99908 16.1397 5.92006 16.2803 5.77941C16.421 5.63876 16.5 5.44799 16.5 5.24908C16.5 5.05017 16.421 4.8594 16.2803 4.71875C16.1397 4.5781 15.9489 4.49908 15.75 4.49908ZM7.5 3.24658C7.5 3.12658 7.6575 2.99908 7.875 2.99908H10.125C10.3425 2.99908 10.5 3.12658 10.5 3.24658V4.49908H7.5V3.24658ZM13.5 14.2491C13.5 14.448 13.421 14.6388 13.2803 14.7794C13.1397 14.9201 12.9489 14.9991 12.75 14.9991H5.25C5.05109 14.9991 4.86032 14.9201 4.71967 14.7794C4.57902 14.6388 4.5 14.448 4.5 14.2491V5.99908H13.5V14.2491ZM6.75 12.7491C6.94891 12.7491 7.13968 12.6701 7.28033 12.5294C7.42098 12.3888 7.5 12.198 7.5 11.9991V8.99908C7.5 8.80017 7.42098 8.6094 7.28033 8.46875C7.13968 8.3281 6.94891 8.24908 6.75 8.24908C6.55109 8.24908 6.36032 8.3281 6.21967 8.46875C6.07902 8.6094 6 8.80017 6 8.99908V11.9991C6 12.198 6.07902 12.3888 6.21967 12.5294C6.36032 12.6701 6.55109 12.7491 6.75 12.7491ZM11.7803 12.5294C11.6397 12.6701 11.4489 12.7491 11.25 12.7491C11.0511 12.7491 10.8603 12.6701 10.7197 12.5294C10.579 12.3888 10.5 12.198 10.5 11.9991V8.99908C10.5 8.80017 10.579 8.6094 10.7197 8.46875C10.8603 8.3281 11.0511 8.24908 11.25 8.24908C11.4489 8.24908 11.6397 8.3281 11.7803 8.46875C11.921 8.6094 12 8.80017 12 8.99908V11.9991C12 12.198 11.921 12.3888 11.7803 12.5294Z"
    fill="#FF4842" />
</svg>