<svg xmlns="http://www.w3.org/2000/svg" width="18" height="18" viewBox="0 0 18 18" fill="none">
  <path fill-rule="evenodd" clip-rule="evenodd"
    d="M12.495 3.44965L14.55 5.50465C15.1245 6.05198 15.1479 6.9609 14.6025 7.53715L7.85248 14.2872C7.60801 14.5296 7.28758 14.6805 6.94498 14.7147L3.81748 14.9997H3.74998C3.55063 15.0008 3.35902 14.9225 3.21748 14.7822C3.05926 14.6245 2.97953 14.4046 2.99998 14.1822L3.32248 11.0547C3.35661 10.7121 3.50756 10.3916 3.74998 10.1472L10.5 3.39715C11.0818 2.90556 11.9398 2.92814 12.495 3.44965ZM9.98998 5.99965L12 8.00965L13.5 6.54715L11.4525 4.49965L9.98998 5.99965Z"
    fill="#B78103" />
</svg>